<svg xmlns="http://www.w3.org/2000/svg" width="32" height="32" viewBox="0 0 32 32">
  <path id="Icon_awesome-arrow-circle-left" data-name="Icon awesome-arrow-circle-left" d="M16.563,32.563a16,16,0,1,1,16-16A16,16,0,0,1,16.563,32.563ZM18.427,23.3l-4.871-4.671H25.337a1.545,1.545,0,0,0,1.548-1.548V16.046A1.545,1.545,0,0,0,25.337,14.5H13.556l4.871-4.671a1.55,1.55,0,0,0,.026-2.213l-.71-.7a1.542,1.542,0,0,0-2.187,0L6.995,15.466a1.542,1.542,0,0,0,0,2.187l8.561,8.561a1.542,1.542,0,0,0,2.187,0l.71-.7A1.55,1.55,0,0,0,18.427,23.3Z" transform="translate(-0.563 -0.563)" fill="#707070"/>
</svg>
