<svg xmlns="http://www.w3.org/2000/svg" width="32" height="32" viewBox="0 0 32 32">
  <path id="Icon_awesome-arrow-circle-right" data-name="Icon awesome-arrow-circle-right" d="M16.563.563a16,16,0,1,1-16,16A16,16,0,0,1,16.563.563ZM14.7,9.827,19.569,14.5H7.788A1.545,1.545,0,0,0,6.24,16.046v1.032a1.545,1.545,0,0,0,1.548,1.548H19.569L14.7,23.3a1.55,1.55,0,0,0-.026,2.213l.71.7a1.542,1.542,0,0,0,2.187,0l8.561-8.555a1.542,1.542,0,0,0,0-2.187L17.569,6.9a1.542,1.542,0,0,0-2.187,0l-.71.7A1.558,1.558,0,0,0,14.7,9.827Z" transform="translate(-0.563 -0.563)" fill="#707070"/>
</svg>
