<svg xmlns="http://www.w3.org/2000/svg" width="32" height="32" viewBox="0 0 32 32">
  <g id="Icon_ionic-md-close-circle-outline" data-name="Icon ionic-md-close-circle-outline" transform="translate(-3.375 -3.375)">
    <path id="Caminho_2" data-name="Caminho 2" d="M19.375,6.606a12.764,12.764,0,1,1-9.031,3.738,12.716,12.716,0,0,1,9.031-3.738m0-3.231a16,16,0,1,0,16,16,16,16,0,0,0-16-16Z" transform="translate(0 0)" fill="#fffff5"/>
    <path id="Caminho_3" data-name="Caminho 3" d="M25.313,23.266l-2.046,2.046L18,20.046l-5.266,5.266-2.046-2.046L15.954,18l-5.266-5.266,2.046-2.046L18,15.954l5.266-5.266,2.046,2.046L20.046,18Z" transform="translate(1.375 1.375)" fill="#fffff5"/>
  </g>
</svg>
